<svg width="100" height="100" viewBox="0 0 100 100" fill="none" xmlns="http://www.w3.org/2000/svg">
<path d="M91.9716 41.4656C91.5294 29.1416 91.4372 24.1488 77.4828 24.2522C78.4784 19.3738 81.1652 14.9872 84.5806 11.4066C85.4454 10.5244 84.5036 8.91444 83.2906 9.28624C80.5362 9.99164 77.7912 10.8952 75.2624 12.2048C70.2306 14.6792 65.8254 18.7582 63.7178 24.0264C57.0902 23.9612 50.3932 24.1004 43.7756 24.414C36.4266 25.0522 24.1016 23.5744 25.0614 34.3832C25.135 34.2148 25.141 33.924 25.2296 33.7956C25.339 33.9892 25.2822 34.3532 25.4158 33.8768C25.3922 34.241 25.3618 34.593 25.342 34.9544C24.6408 35.0284 15.9486 35.7604 19.3874 35.755C19.081 35.9134 18.543 35.95 19.3098 35.9568C18.5682 36.0568 17.7566 36.0934 17.0478 36.2486C35.9956 35.9814 55.451 34.5594 74.1672 37.6386C80.1036 39.1436 79.1966 65.7798 75.7512 69.3806C74.5392 70.6786 72.7898 71.2506 71.0434 71.2678C59.7214 72.0598 48.3814 72.4782 37.0304 72.1996C35.5342 72.153 35.3986 74.1074 34.7772 75.083C32.0696 80.7154 26.6082 84.5154 20.8142 86.5182C22.3664 84.7982 29.5042 71.8704 24.7406 71.793C22.2768 71.6596 19.5342 71.4542 17.0552 71.308C7.59663 71.0114 10.4396 48.718 11.0314 42.1642C11.3858 38.9944 13.871 36.519 17.0278 35.9884C6.83643 35.572 8.56663 50.6598 8.01562 57.5708C8.23542 69.86 9.74783 74.7888 23.2536 74.5642C22.3956 78.4654 20.5554 82.0808 18.1152 85.236C17.379 86.626 14.909 88.0338 15.1948 89.629C15.3996 90.4314 16.2156 90.9158 17.0178 90.7114C25.6926 88.6556 34.536 83.7502 37.9326 75.0584C47.3424 75.1636 56.7594 74.9536 66.1514 74.363C76.4216 74.351 80.2416 71.6682 80.579 61.0608C92.3142 63.8326 92.0178 49.3278 91.9716 41.4656ZM89.2458 45.9912C88.8026 53.591 90.3416 59.7628 80.617 60.5882C80.5336 52.4366 83.3044 35.9078 72.0012 34.656C56.5114 33.4946 40.9304 33.3576 25.4672 34.943C26.9014 25.1148 31.9278 27.351 39.7716 26.766C47.9904 26.41 56.2366 26.3024 64.4608 26.524C65.6588 26.574 65.8858 25.166 66.3216 24.3192C68.797 18.9658 73.904 15.4088 79.3258 13.4346C76.724 16.9288 74.9698 21.0764 74.3212 25.3904C73.7262 28.8448 84.1902 25.91 86.5126 28.906C89.773 31.9336 88.9568 41.5436 89.2458 45.9912ZM17.6708 52.8016C15.6348 56.9884 22.9456 56.7024 20.8782 52.9342C20.7946 52.9214 20.8442 52.8156 20.836 52.7436C20.582 52.487 20.3332 52.0288 19.9194 52.0488C19.7876 51.752 19.3496 51.9334 19.2244 51.5336C19.27 51.4424 19.334 51.459 19.4014 51.4154C19.3374 51.3648 19.4102 51.2882 19.4202 51.2206C19.2044 51.0338 19.5764 50.954 19.7188 50.922C24.2128 49.9748 24.881 56.5574 21.2084 58.1436C15.921 60.9894 11.3248 52.8228 17.0532 50.4688C17.9586 50.3414 18.8346 50.3192 19.2242 51.2728C19.1782 51.3162 19.1336 51.3382 19.109 51.434C19.0694 51.4904 19.008 51.4412 18.983 51.5472C18.8704 51.6992 18.7116 51.7276 18.622 51.941C18.2154 52.0752 17.809 52.4236 17.6708 52.8016ZM34.4978 52.8016C32.4618 56.9884 39.7726 56.7024 37.7052 52.9342C37.6216 52.9214 37.6712 52.8158 37.663 52.7436C37.4088 52.4872 37.1602 52.0288 36.7464 52.0488C36.6146 51.752 36.1766 51.9334 36.0514 51.5336C36.097 51.4424 36.1608 51.4592 36.2284 51.4154C36.1644 51.3644 36.2372 51.2888 36.2472 51.2206C36.0314 51.0338 36.4036 50.954 36.5458 50.922C41.0398 49.9748 41.708 56.5574 38.0354 58.1436C32.748 60.9894 28.1516 52.8228 33.8802 50.4688C34.7856 50.3412 35.6616 50.319 36.0512 51.2728C36.0052 51.3162 35.9606 51.3382 35.936 51.434C35.8962 51.4904 35.835 51.4412 35.81 51.5472C35.6976 51.6992 35.5386 51.7276 35.4488 51.941C35.0426 52.0752 34.636 52.4236 34.4978 52.8016ZM51.325 52.8016C49.289 56.9882 56.5998 56.7026 54.5326 52.9342C54.449 52.9214 54.4986 52.8156 54.4904 52.7436C54.2364 52.487 53.9876 52.0288 53.5738 52.0488C53.4418 51.752 53.004 51.9334 52.8786 51.5336C52.9244 51.4424 52.9882 51.459 53.0558 51.4154C52.9918 51.3644 53.0646 51.2888 53.0746 51.2206C52.8588 51.0338 53.231 50.954 53.3732 50.922C57.8672 49.9748 58.5354 56.5572 54.8628 58.1436C49.5754 60.9894 44.979 52.8228 50.7076 50.4688C51.613 50.3412 52.489 50.319 52.8786 51.2728C52.8326 51.3162 52.788 51.3382 52.7634 51.434C52.7238 51.4904 52.6624 51.4412 52.6374 51.5472C52.5248 51.6992 52.3662 51.7276 52.2762 51.941C51.8696 52.0752 51.463 52.4236 51.325 52.8016ZM68.152 52.8016C66.116 56.9884 73.4268 56.7026 71.3594 52.9342C71.2758 52.9214 71.3254 52.8158 71.3172 52.7436C71.063 52.4872 70.8144 52.0288 70.4006 52.0488C70.2688 51.752 69.8308 51.9334 69.7056 51.5336C69.7512 51.4424 69.815 51.4592 69.8826 51.4154C69.8186 51.3644 69.8914 51.2888 69.9014 51.2206C69.6856 51.0338 70.0578 50.954 70.2 50.922C74.694 49.9748 75.3622 56.5574 71.6896 58.1436C66.4024 60.9894 61.8058 52.8228 67.5344 50.4688C68.4398 50.3412 69.3158 50.319 69.7054 51.2728C69.6594 51.3162 69.6148 51.3382 69.5902 51.434C69.5504 51.4904 69.4892 51.4412 69.4642 51.5472C69.3518 51.6992 69.1928 51.7276 69.103 51.941C68.6968 52.0752 68.2902 52.4236 68.152 52.8016Z" fill="white"/>
</svg>
