<svg width="100" height="100" viewBox="0 0 100 100" fill="none" xmlns="http://www.w3.org/2000/svg">
<path d="M91.8806 85.288C92.7555 86.5388 92.5348 88.5414 91.3783 89.8471C89.199 92.3087 84.1178 92.5955 80.515 89.4471C85.8014 85.3091 82.4499 79.1046 78.3485 81.0406C75.9558 82.1752 74.9131 85.352 77.275 88.8585C73.1416 90.1643 69.6354 86.738 69.7073 83.1957C69.7086 83.1347 69.685 83.0813 69.6759 83.0228C71.7827 80.962 73.586 78.0104 73.5105 75.1478C73.461 73.2535 72.5079 71.588 71.5347 70.0429C69.9575 67.5413 68.2237 65.0892 66.3823 62.7548C64.6566 60.5676 62.8941 58.5462 60.3183 57.8412C56.8976 56.9075 53.4107 58.8659 51.4703 61.2231C49.6951 63.3822 48.7339 66.0055 47.9494 68.4416C34.824 62.3829 24.9292 49.5699 22.3868 35.3348C24.8249 35.1221 27.4736 34.7836 29.8642 33.589C32.7518 32.1469 35.3363 30.5135 35.2447 26.4267C35.1597 22.6248 33.1123 18.6904 31.2 15.3032C29.3753 12.0685 27.0757 8.45793 22.8631 6.53958C19.5414 5.02257 15.0205 8.84454 12.3222 11.1281L11.5925 11.7394C6.22557 16.1648 4.79665 21.0515 5.78936 26.7053C5.91377 33.1384 8.51003 39.8703 10.785 45.6041C19.302 67.0698 35.4401 82.4982 45.9014 86.9886C53.1257 90.0893 61.4049 90.1225 67.3396 84.9109C67.488 84.8111 67.6312 84.699 67.7777 84.5947C68.6418 89.4366 73.6655 92.6762 78.6709 90.536C80.7598 92.5901 83.6409 93.8068 86.5704 93.8068C93.2123 93.8068 96.1663 87.8295 93.5648 84.1108C92.788 82.9982 91.1004 84.1738 91.8806 85.288ZM22.0116 8.40977C25.3058 9.90939 27.285 12.5461 29.4101 16.3119C31.2 19.4837 33.1156 23.1452 33.1899 26.4722C33.248 29.051 32.0047 30.1829 29.2394 31.5976C26.6166 24.0281 21.4613 16.3734 15.5142 11.1645C17.6477 9.49318 20.4086 7.6842 22.0116 8.40977ZM58.0334 86.005C55.8107 86.1241 53.5298 85.292 51.4068 84.3689C36.2299 77.7658 23.4022 65.4263 16.2117 50.517C13.3516 44.5867 11.3028 38.1735 9.32096 31.9717C6.40508 22.845 6.48031 18.7349 13.9051 12.4809C19.7361 17.4918 24.8078 24.9926 27.3429 32.3891C25.349 33.0288 23.1708 33.2119 21.1942 33.3723C20.5517 33.4267 20.0949 34.0311 20.1902 34.6472C22.5935 50.3043 33.5444 64.4778 48.0764 70.7492C48.3467 70.871 48.7192 70.8683 48.9854 70.7479C49.2523 70.6275 49.5005 70.3492 49.5888 70.0697C50.2959 67.8261 51.0899 65.3201 52.4987 63.2782C63.9208 70.9903 66.3969 82.386 66.7023 82.8389C64.0837 84.7346 61.102 85.8339 58.0334 86.005ZM53.8377 61.714C55.3965 60.2647 57.6292 59.2345 59.7758 59.8238C61.7497 60.3642 63.264 62.1207 64.769 64.0283C66.5662 66.3052 68.2578 68.6985 69.7963 71.1385C70.6511 72.495 71.421 73.8261 71.4571 75.2013C71.5139 77.3818 70.0381 79.7507 68.3542 81.4396C65.9184 73.5216 60.673 66.3962 53.8377 61.714ZM79.1238 87.9193C78.3567 86.8501 77.7468 85.4501 78.1031 84.195C78.3268 83.4046 79.1466 82.7422 79.8642 82.7422C81.5142 82.7422 81.9423 85.8376 79.1238 87.9193Z" fill="white"/>
<path d="M51.683 27.3551C56.3564 27.3551 56.7045 20.0583 51.7104 19.861C50.4435 19.7914 48.6077 20.5522 48.5513 21.5907C46.8531 24.1831 48.594 27.3551 51.683 27.3551Z" fill="white"/>
<path d="M58.6758 23.4702H78.399C79.7579 23.4702 79.7587 21.4154 78.399 21.4154H58.6758C57.3168 21.4154 57.316 23.4702 58.6758 23.4702Z" fill="white"/>
<path d="M52.7331 30.5497C51.5501 29.648 48.6321 31.8166 49.2697 34.4198C49.9614 37.244 54.0692 38.0033 55.4682 35.0231C56.5551 32.7078 54.8231 30.4064 52.7331 30.5497Z" fill="white"/>
<path d="M71.0479 31.161H60.9258C59.5668 31.161 59.566 33.2158 60.9258 33.2158H71.0479C72.4068 33.2158 72.4077 31.161 71.0479 31.161Z" fill="white"/>
<path d="M57.6735 48.3902C65.5565 58.2041 65.1812 58.6605 66.2922 58.3523C66.2944 58.3516 66.2959 58.3503 66.2981 58.3496C66.2965 58.3834 66.2919 58.4172 66.2904 58.4508C66.7122 58.3336 67.6478 57.556 68.1887 57.1321C68.9399 56.5432 69.3539 55.6199 69.3539 54.6654V49.0567C83.3376 48.126 94.377 39.2996 94.377 28.6354C94.377 13.7641 73.5605 3.56852 55.1677 10.1213C49.425 11.6683 44.424 15.1702 41.1213 20.3184C37.3668 26.1711 38.1281 34.075 41.871 39.9351C45.3472 45.3777 51.3125 47.6061 57.6735 48.3902ZM66.9303 10.1703C80.9313 10.1703 92.3223 18.4537 92.3223 28.6354C92.3223 38.7301 81.0229 47.0135 67.1343 47.0991C65.7777 47.1087 66.1636 48.5219 65.2956 54.7792C59.3311 47.4156 58.8503 46.1481 58.1118 45.95C48.1897 43.2758 41.5236 36.3168 41.5236 28.6354C41.5236 18.4537 52.9213 10.1703 66.9303 10.1703Z" fill="white"/>
</svg>
