<svg width="100" height="100" viewBox="0 0 100 100" fill="none" xmlns="http://www.w3.org/2000/svg">
<path d="M88.8295 54.2286C88.6234 52.9971 80.9934 26.2904 80.9537 26.1512C79.2828 20.2366 76.6737 19.5867 71.7154 21.0756C68.8004 21.8816 72.7747 20.9443 37.315 30.4353C39.1781 15.3183 19.1367 6.96656 10.0682 19.3334C5.09854 26.0307 5.9916 36.0223 13.0268 40.9601C12.4115 43.6703 13.1934 46.2462 13.9068 48.8582C16.0322 56.7069 20.1666 70.3191 20.2089 70.4624C21.5907 74.9739 23.6101 79.1681 28.4836 79.1681C30.4595 79.1681 30.8574 78.9369 45.6998 74.5821L69.2964 67.6735C69.2984 67.7534 69.3423 71.4647 69.3389 71.6765C69.3217 71.8736 69.1484 72.0327 68.9419 72.0327H67.2141C64.2898 72.0327 64.118 76.0431 65.1516 77.3699C67.8481 80.963 70.1966 84.0928 71.3599 85.6342C72.3934 86.9692 74.4034 86.9857 75.468 85.6577C75.581 85.515 81.8879 77.5575 82.0005 77.4155C83.0221 76.0771 82.9457 72.0327 79.9315 72.0327H78.1841C77.9901 72.0327 77.8208 71.8842 77.7909 71.6876C77.7928 67.0564 77.7943 66.6275 77.7841 65.1835C79.5455 64.6261 81.5588 64.2376 85.1763 62.6147C85.5329 62.4532 88.4227 61.0255 88.7727 60.4936C89.9759 58.6835 89.4843 56.3356 88.8295 54.2286ZM26.4195 43.3562C28.528 44.135 30.1885 44.7814 40.6591 48.7679C27.3071 74.6344 28.5895 72.3536 27.7941 73.6132C25.6622 72.5145 24.5227 69.7425 23.6268 66.8491C22.3204 62.6149 17.9672 47.8117 16.7056 42.9143C19.748 44.0308 23.1777 44.303 26.4195 43.3562ZM69.9497 57.7319C69.5394 58.1002 69.3313 58.5036 69.2899 63.0059C30.0489 74.5012 31.897 74.1023 29.8228 74.1347C30.125 73.6329 38.6999 56.9186 42.5387 49.4836C48.8728 51.8408 52.0215 52.8588 56.8783 47.729C57.9342 46.6179 58.6775 45.6762 59.9758 44.1329C68.3301 48.8562 76.6831 53.5899 85.0374 58.3249C84.2206 58.6699 83.7113 58.7753 77.6919 60.5533C77.5848 58.1088 77.4191 57.9555 77.1516 57.7163C76.4367 57.0027 70.7037 57.0249 69.9497 57.7319ZM79.0305 26.698C79.0692 26.8336 86.6947 53.5425 86.8716 54.6303C87.047 55.6595 86.9794 56.4105 86.7012 56.9699C78.2188 52.1625 69.7385 47.3571 61.2572 42.5598C61.2689 42.546 61.2835 42.5294 61.2929 42.5179C61.3186 42.4865 61.3353 42.4643 61.3371 42.458C66.0612 36.7942 72.4718 28.0717 76.2844 22.4923C77.9366 23.0186 78.5551 25.0169 79.0305 26.698ZM73.7715 22.5776C69.1905 29.2052 59.1004 42.7056 55.0009 46.7842C50.8986 50.8381 48.4161 49.5414 43.0357 47.5327L29.1411 42.2371C32.9535 40.2152 35.6836 36.6799 36.8468 32.6311C80.7634 20.8574 71.0197 23.2312 73.7715 22.5776ZM11.6776 20.5209C19.5399 9.7949 37.1587 17.0645 35.2844 30.5418C33.9012 38.9797 25.0059 44.9331 15.7727 40.3165C8.38224 36.5951 6.90099 26.9588 11.6776 20.5209ZM80.4146 76.198L73.9042 84.4103C73.6487 84.7268 73.1784 84.7164 72.9497 84.4194C71.7645 82.8504 70.1933 80.7561 66.7401 76.1551C66.5008 75.8479 66.6304 75.4531 66.9354 75.2867C67.1759 75.1506 67.2132 75.2383 68.9641 75.2097C70.3163 75.2097 71.3784 74.1006 71.3625 72.7709C71.3343 70.4126 71.1638 61.5453 71.4302 59.2892C72.3794 59.1707 74.5826 59.1512 75.6021 59.2527C75.8375 61.5705 75.8033 69.9926 75.8026 72.7788C75.7842 74.0871 76.8478 75.2097 78.205 75.2097H79.938C80.4512 75.2097 80.7416 75.7611 80.4146 76.198Z" fill="white"/>
<path d="M86.8929 30.4311C87.2314 30.4311 87.5608 30.2605 87.7483 29.9506L90.0895 26.1042C90.3772 25.6329 90.2275 25.0183 89.7548 24.7305C89.2861 24.4428 88.6689 24.5925 88.3811 25.0652L86.04 28.9115C85.6304 29.5824 86.1257 30.4311 86.8929 30.4311Z" fill="white"/>
<path d="M91.8907 31.9141L88.3738 32.5547C87.8308 32.6537 87.4701 33.1745 87.5691 33.7188C87.6653 34.2422 88.1632 34.6205 88.7331 34.5235L92.2501 33.8802C92.7943 33.7813 93.1537 33.2605 93.0535 32.7175C92.9558 32.1732 92.4219 31.8125 91.8907 31.9141Z" fill="white"/>
<path d="M25.5558 23.7683C25.5558 23.7631 25.5558 23.7579 25.5558 23.7527C25.5116 22.2774 24.5493 21.0118 23.1574 20.6016C20.2688 19.757 17.6419 22.7363 19.4204 25.6993C20.9829 28.3104 25.5928 27.2009 25.5558 23.7683Z" fill="white"/>
<path d="M28.8264 36.7813C30.5927 36.7785 31.6224 34.8446 30.7106 33.3646C27.3576 27.8967 16.9201 28.1257 13.6689 33.3347L13.5374 33.556C12.7487 35.0276 13.8858 36.7826 15.5231 36.7826C15.7352 36.7826 28.9612 36.7813 28.8264 36.7813ZM15.3043 34.4948C17.6788 30.4259 26.4385 30.2168 29.0074 34.4128C29.1075 34.5741 29.0114 34.7813 28.8238 34.7813L15.5244 34.7826C15.3839 34.7826 15.2452 34.6471 15.3043 34.4948Z" fill="white"/>
</svg>
