<svg width="100" height="100" viewBox="0 0 100 100" fill="none" xmlns="http://www.w3.org/2000/svg">
<path d="M45.254 46.077H66.5383C67.1055 46.077 67.5657 45.6168 67.5657 45.0496C67.5657 44.4824 67.1055 44.0222 66.5383 44.0222H45.254C44.6868 44.0222 44.2266 44.4824 44.2266 45.0496C44.2266 45.6168 44.6868 46.077 45.254 46.077Z" fill="white"/>
<path d="M31.8868 48.0355H37.3468C37.8839 48.0355 38.3307 47.6221 38.3715 47.0857L38.7682 41.8711C38.8127 41.2782 38.3446 40.7661 37.7435 40.7661H31.8868C31.3196 40.7661 30.8594 41.2263 30.8594 41.7935V47.0081C30.8594 47.5753 31.3196 48.0355 31.8868 48.0355ZM32.9142 42.8209H36.6351L36.3943 45.9807H32.9142V42.8209Z" fill="white"/>
<path d="M37.9688 53.5336C37.9688 54.1008 38.4289 54.561 38.9961 54.561H54.4332C55.0004 54.561 55.4606 54.1008 55.4606 53.5336C55.4606 52.9664 55.0004 52.5062 54.4332 52.5062H38.9961C38.4289 52.5062 37.9688 52.9664 37.9688 53.5336Z" fill="white"/>
<path d="M49.9228 58.573H46.1055C45.5383 58.573 45.0781 59.0332 45.0781 59.6004C45.0781 60.1676 45.5383 60.6278 46.1055 60.6278H49.9228C50.49 60.6278 50.9502 60.1676 50.9502 59.6004C50.9502 59.0332 50.49 58.573 49.9228 58.573Z" fill="white"/>
<path d="M87.5449 89.7893C88.402 89.003 88.7737 88.0141 88.7582 87.0016C87.9951 39.4286 88.1692 44.1384 88.0498 43.551C88.0732 43.2739 87.9922 42.9895 87.7883 42.7687C77.6886 31.8308 64.2686 16.8182 52.8776 6.78438C51.2729 5.37037 48.9372 5.26603 47.1994 6.52753C34.3926 15.8548 22.2882 26.7342 8.92865 38.9589C8.4275 39.1995 7.95102 39.5598 7.64089 39.8747C7.22318 40.2989 7.12878 40.4317 7.12878 40.9368C7.12878 88.5562 6.96893 85.9345 7.42401 87.6079C7.67826 88.5428 8.34731 89.6128 9.23801 89.994C9.31259 90.0259 9.39084 90.0491 9.46668 90.0786C9.56985 90.134 9.67177 90.1901 9.78063 90.2327C10.7962 91.2366 12.4107 91.6104 13.8635 91.9616C17.9279 92.9439 15.7575 92.6275 92.4768 94.352C91.7488 92.1329 89.7601 90.5747 87.5449 89.7893ZM25.5345 30.8257C50.2133 31.326 52.8237 31.3983 56.2106 31.9824C58.7608 32.4209 60.3061 37.1939 62.6245 39.0685C63.1018 39.4551 63.5128 39.226 63.6589 39.2113C63.6969 39.1957 63.7295 39.1741 63.7657 39.1538C63.8513 39.1163 63.9387 39.083 64.0144 39.0203C64.6025 38.5329 65.5995 37.844 65.8953 37.6665C68.2139 36.1832 69.0028 36.0778 70.2845 35.6117C70.5918 35.5524 71.1732 35.4832 71.4356 35.6639C72.5961 36.4639 73.384 37.6143 73.9914 39.3935C74.6683 41.1771 75.5744 45.1919 75.5713 48.4528C75.5709 48.6631 75.5714 48.8833 75.5736 49.1154L49.7974 63.8022C48.6576 64.4511 47.2188 64.3962 46.1346 63.6591L25.8106 49.8856C25.8572 43.4785 25.7498 38.0913 25.5345 30.8257ZM10.632 88.3405C19.2063 80.5801 29.8001 70.9965 39.5917 62.1209C41.6459 63.6186 43.5624 64.9569 44.4042 65.4861C46.4018 66.7416 48.8328 67.4787 51.1417 66.9938C53.3111 66.5382 54.9457 65.1991 57.8814 63.2858C68.275 73.6145 75.8794 80.4813 84.8027 88.7223C7.76558 88.3465 11.0104 88.4415 10.632 88.3405ZM59.6532 62.1499C67.5796 57.1416 75.9696 52.7683 83.7894 46.7983L86.072 45.4977C86.6956 89.8657 86.809 86.9681 86.6018 87.5856C77.1082 78.8185 69.9819 72.4013 59.6532 62.1499ZM37.9044 60.8764C29.5724 68.4299 22.4942 74.8333 9.95061 86.1864L10.2907 41.851C21.0271 49.22 29.8346 54.8559 37.9044 60.8764ZM48.4088 8.18903C49.3626 7.49607 50.6415 7.55359 51.5197 8.32548C62.5643 18.0544 75.6524 32.6361 85.5863 43.4102L77.6247 47.9466C77.5957 44.4387 76.2148 39.227 75.9365 38.73C75.4649 37.3494 74.6067 35.3549 72.6041 33.9743C72.2956 33.7605 71.9266 33.6415 71.5408 33.5704C69.6016 32.4293 66.7955 31.5274 64.6451 31.1233C64.2011 31.0399 60.2415 30.4383 57.2482 30.1492C54.3647 29.1495 42.1468 29.095 24.9445 28.757C24.9378 28.757 24.9311 28.757 24.9238 28.757C24.836 28.757 24.7572 28.7857 24.6757 28.8065C24.5992 28.7873 24.5246 28.7596 24.4455 28.757C23.8783 28.7744 23.4322 29.248 23.4496 29.8152C23.6691 37.0811 23.7868 42.4009 23.7628 48.4979L11.0019 39.85C24.0421 27.9241 35.9091 17.2926 48.4088 8.18903Z" fill="white"/>
<path d="M76.2941 22.693C76.383 22.7171 76.472 22.7278 76.5596 22.7278C77.0138 22.7278 77.4291 22.4255 77.5516 21.9653L79.3803 15.1173C79.5268 14.5702 79.201 14.007 78.6532 13.8598C78.1014 13.71 77.5415 14.0391 77.395 14.5876L75.5663 21.4355C75.4198 21.984 75.7456 22.5472 76.2941 22.693Z" fill="white"/>
<path d="M81.2069 26.2541L86.4616 20.3225C86.8375 19.8984 86.7987 19.2483 86.374 18.8724C85.9472 18.4965 85.2997 18.5353 84.9232 18.9607L79.6685 24.8923C79.2925 25.3163 79.3313 25.9665 79.7561 26.3424C80.183 26.7183 80.8311 26.6794 81.2069 26.2541Z" fill="white"/>
<path d="M91.3908 25.5999L84.0906 29.4928C83.5903 29.7604 83.401 30.3824 83.6679 30.8828C83.9348 31.3856 84.5579 31.572 85.0578 31.3068L92.358 27.4139C92.8583 27.1464 93.0476 26.5243 92.7807 26.024C92.5138 25.521 91.8898 25.3337 91.3908 25.5999Z" fill="white"/>
</svg>
