<svg width="100" height="100" viewBox="0 0 100 100" fill="none" xmlns="http://www.w3.org/2000/svg">
<path d="M25.892 33.667C27.7755 35.2229 30.2533 35.9168 32.4621 35.5033C30.2628 35.1047 28.3683 33.9869 27.1484 32.412C25.8966 30.8649 25.3483 28.9246 25.4738 27.0953C25.6923 23.3858 28.9637 20.3966 32.4654 20.5109C35.966 20.404 39.235 23.3946 39.4511 27.0988C39.5771 28.926 39.0261 30.8647 37.7742 32.4099C36.5547 33.9844 34.661 35.1015 32.4621 35.5033C34.6715 35.9198 37.1496 35.2261 39.0364 33.6728C40.914 32.1137 42.1766 29.6811 42.2888 27.1001C42.4707 24.5195 41.4333 21.8651 39.6264 19.9389C37.7974 18.018 35.1389 16.8945 32.4671 16.8767C29.7971 16.8975 27.1337 18.0121 25.3085 19.9381C23.499 21.8625 22.468 24.5173 22.647 27.0953C22.7579 29.674 24.0171 32.1065 25.892 33.667Z" fill="white"/>
<path d="M7.1325 82.4488C7.88046 82.5986 8.16255 82.517 8.54497 82.5458L11.6822 82.5838C11.8608 84.4672 12.6803 86.3124 13.9974 87.7252C15.6354 89.4635 18.0349 90.471 20.4405 90.4941C22.8476 90.4762 25.2442 89.4617 26.8869 87.7288C28.1374 86.3846 28.9686 84.6516 29.2025 82.8655C42.8964 82.9821 56.5903 83.0556 70.2841 83.0695C70.5527 84.782 71.3689 86.4339 72.5726 87.7252C74.2105 89.4635 76.61 90.471 79.0156 90.4941C81.4227 90.4762 83.8193 89.4617 85.462 87.7288C86.6682 86.4322 87.4889 84.7741 87.7557 83.0555L90.9372 83.0462C91.5539 83.0444 91.6764 83.0484 91.9444 83.0286C92.1329 83.008 92.3222 82.9806 92.5063 82.9292C93.9619 82.5587 95.1021 81.2214 95.1172 79.5849L95.115 78.4333L95.0563 69.3722C95.0377 68.573 95.0703 67.9681 95.0078 66.9796C94.7771 64.1998 93.3152 61.6479 91.0929 60.0507C89.6213 58.9812 87.8322 58.357 86.0268 58.2677L85.4159 58.2487C84.6839 58.2437 84.0504 57.7646 83.8018 57.1052L83.7819 57.0524L83.7408 56.9584C83.6473 56.7699 75.4092 40.1655 75.9245 41.2039C75.535 40.501 75.0166 39.8702 74.3961 39.3658C73.1821 38.3389 71.5297 37.8114 70.0109 37.8753L62.2239 38.0434L54.437 38.2498L53.4636 38.279L52.9769 38.2935C52.8383 38.3008 52.6423 38.2915 52.3794 38.3372C51.4183 38.4938 50.6612 39.3436 50.5929 40.2854C50.6226 41.3145 50.8414 50.8384 51.2354 59.8214C51.4632 54.6301 51.6298 49.4387 51.7737 44.2474L51.8952 40.423C51.9496 40.0623 52.2647 39.7698 52.6034 39.7457C52.79 39.7506 62.8557 40.0156 62.2239 39.9989L70.0109 40.167C71.0866 40.1742 72.0487 40.5577 72.7973 41.2352C73.1688 41.5685 73.4779 41.9659 73.7014 42.4069C73.7868 42.5934 81.4469 59.3241 80.9691 58.2803L80.9085 58.1342C81.5497 59.9796 83.2874 61.319 85.3228 61.3864L85.8437 61.4112C87.0535 61.4943 88.2228 61.9287 89.1831 62.6519C89.6345 62.9898 90.0309 63.3919 90.3735 63.8353C89.8368 63.7732 89.3003 63.6775 88.7636 63.6335L88.51 63.6128C87.9692 63.592 87.4459 63.7666 87.0271 64.0688C86.449 64.4722 86.0613 65.1698 86.0265 65.8959C85.9885 66.6838 85.9927 67.2793 85.9824 67.9806L85.9944 68.9949C85.9997 69.2123 85.989 69.2248 86.015 69.6104C86.1214 70.7312 86.9768 71.6422 88.0535 71.8114C88.2117 71.8408 88.4573 71.8469 88.546 71.8402L88.7995 71.8253L89.3067 71.7863C90.0907 71.7211 90.8747 71.5923 91.6588 71.4874L91.6137 78.4333L91.6097 79.5194C91.5757 79.5208 90.9714 79.5184 90.9372 79.5183L88.0139 79.5098C87.6658 77.7365 86.793 76.0608 85.512 74.7842C83.8254 73.0715 81.4233 72.0691 79.0163 72.073C76.6044 72.0498 74.1938 73.0574 72.5075 74.7743C71.228 76.0507 70.3543 77.7241 70.0045 79.4957C56.4163 79.5103 42.8282 79.583 29.2399 79.6986C28.9055 77.9165 28.0416 76.2335 26.7494 74.9714C25.0897 73.3279 22.7563 72.3927 20.4408 72.4253C18.1216 72.437 15.8282 73.4198 14.2294 75.0707C12.9429 76.3752 12.1258 78.0996 11.8528 79.8991C11.8469 79.9251 11.846 79.9524 11.8402 79.9786L8.54497 80.0186C7.55109 80.038 7.67516 80.04 7.43868 79.8641C7.36832 79.7801 7.31539 79.6826 7.30895 79.5668L7.28753 78.4856C7.21672 74.2762 7.01737 62.4262 7.02231 62.7199L7.00333 61.5938C6.99756 61.3739 7.04017 61.2236 7.14537 61.063C7.24447 60.9074 7.4035 60.7935 7.57628 60.7303C7.67549 60.6986 7.73209 60.6894 7.87991 60.6826C8.06295 60.6793 10.8783 60.628 10.6953 60.6314L15.1997 60.5495C27.2116 60.3205 39.2236 60.1483 51.2354 59.8214C45.3219 59.6604 39.4084 59.538 33.4949 59.4268C33.5704 59.3729 33.6416 59.3137 33.7093 59.2471C33.7565 59.2004 33.817 59.1752 33.8597 59.1224L33.8628 59.1185C33.8649 59.1159 33.8681 59.1149 33.8702 59.1123C33.9097 59.0629 33.9457 59.0119 33.9851 58.9626C35.163 57.5001 36.3086 55.9928 37.4334 54.4686C39.4757 51.7539 41.4621 49.0043 43.3124 46.1364C46.162 41.6065 48.9467 36.9643 50.6067 31.6258C52.4063 25.9384 50.4682 19.9488 46.9442 15.7179C43.3239 11.5022 37.777 9.13779 32.4712 9.55338C37.751 9.96509 42.6932 12.6314 45.5515 16.8135C47.0093 18.8592 48.012 21.1976 48.4448 23.6261C48.5513 24.2328 48.5876 24.8505 48.6718 25.4568C48.669 26.0674 48.7276 26.6965 48.6815 27.2857C48.5819 27.864 48.5616 28.4268 48.4198 29.0103L47.9128 30.7703C46.1281 35.4571 43.3892 39.9514 40.4484 44.2432C37.9525 47.9307 35.254 51.5268 32.471 55.0084C29.6873 51.5256 26.9837 47.9316 24.4911 44.2401C21.5457 39.9499 18.8091 35.4532 17.0222 30.7674L16.5146 29.0077C16.3731 28.4246 16.3523 27.862 16.2527 27.2839C16.207 26.6947 16.2651 26.0658 16.2624 25.4554C16.348 24.8492 16.3852 24.2318 16.4915 23.6252C16.9252 21.1977 17.9272 18.8586 19.3885 16.8151C22.2482 12.6341 27.1904 9.96831 32.4712 9.55338C27.1637 9.13535 21.615 11.4989 17.988 15.7119C14.4594 19.9426 12.5155 25.9349 14.3176 31.6267C15.978 36.9683 18.7698 41.6083 21.6193 46.14C23.4005 48.8904 25.3014 51.5353 27.2563 54.1454C28.489 55.8255 29.7495 57.4881 31.0643 59.1207C31.1402 59.2137 31.2326 59.3072 31.3295 59.3863C31.1458 59.3829 7.47001 58.9526 8.44298 58.9703L7.87991 58.9601C7.65308 58.956 7.33236 58.9811 7.07191 59.0618C6.52981 59.2219 6.03775 59.5554 5.70217 60.0141C5.35893 60.4585 5.17483 61.0627 5.17993 61.5938C5.17539 61.8638 5.04365 69.6946 5.04732 69.4766L4.89573 78.4856L4.88086 79.6564C4.89118 80.2932 5.13199 80.9295 5.53094 81.4292C5.93388 81.9255 6.49951 82.2992 7.1325 82.4488ZM88.6129 66.0622C88.5989 66.0715 88.5911 66.0957 88.5781 66.0949C88.5605 66.0965 88.5423 66.0935 88.5258 66.0864C88.5258 66.0864 88.5057 66.0802 88.51 66.0705L88.6129 66.0622ZM88.546 69.3221C88.4655 69.3152 88.5339 69.309 88.5339 69.309C88.5715 69.302 88.595 69.3142 88.6191 69.3264L88.546 69.3221ZM89.3067 69.3761L88.7995 69.337L88.6921 69.3307C88.6959 69.2152 88.6977 69.0149 88.7095 67.9806L88.6715 66.0574L88.7636 66.0499C89.6317 65.9787 90.4999 65.8429 91.368 65.7235C91.5295 66.2159 91.6392 66.7195 91.6734 67.2355C91.7035 67.7547 91.6713 68.6617 91.6724 69.3722L91.6704 69.6765C90.8825 69.5708 90.0946 69.4415 89.3067 69.3761ZM73.4159 81.282C73.4189 79.8067 74.0223 78.3638 75.0675 77.3287C76.1101 76.29 77.5465 75.7017 79.0132 75.6955C80.4844 75.6874 81.9289 76.279 82.9731 77.3202C84.0214 78.3571 84.6264 79.803 84.6293 81.282V81.2924C84.6302 81.5872 84.7206 81.8529 84.8487 82.097C84.2429 84.8628 81.7142 86.9455 79.0156 86.86C76.3224 86.9491 73.7961 84.8769 73.181 82.1186C73.318 81.8655 73.4161 81.5899 73.4159 81.282ZM16.1954 77.0323C17.3256 75.9276 18.8792 75.3145 20.4384 75.3433C22.0011 75.3638 23.5143 76.0224 24.5853 77.1331C25.6657 78.2348 26.2757 79.7501 26.2576 81.282V81.2868C26.2563 81.4388 26.301 81.5769 26.3404 81.716C25.8953 84.6696 23.2614 86.9494 20.4405 86.86C17.4788 86.9579 14.6922 84.4514 14.4591 81.2822C14.431 81.018 14.4492 80.7495 14.4587 80.4818C14.6541 79.1762 15.2522 77.9451 16.1954 77.0323Z" fill="white"/>
<path d="M55.3929 59.2076C55.4336 59.7085 55.8702 60.0845 56.3727 60.049C59.8771 59.8013 63.3813 59.5176 66.8856 59.0571C63.7307 58.6426 60.5759 58.379 57.421 58.1483C57.5855 55.9682 57.7234 53.7881 57.8285 51.608C57.9366 49.7064 57.9856 47.8051 58.0429 45.9036L63.9675 45.9743C64.1506 45.9725 69.5096 45.9209 69.1687 45.9241L69.2375 46.0636C71.3463 50.1436 73.4897 54.2044 75.7756 58.1898C72.8122 58.4119 69.8489 58.6661 66.8856 59.0571C70.3898 59.5196 73.8941 59.8059 77.3984 60.0533C78.0944 60.0995 78.5969 59.4133 78.3513 58.7694L78.2967 58.6261C76.4905 53.8892 74.4635 49.2698 72.4201 44.6595L72.0206 43.8024L71.9206 43.5883C71.9238 43.6065 71.9014 43.5149 71.7596 43.2845C71.6407 43.1008 71.4903 42.9375 71.3177 42.8049C70.9875 42.5379 70.5049 42.3956 70.1383 42.4039C69.9552 42.4019 67.5818 42.3765 67.7649 42.3784L63.9675 42.3433C63.6335 42.3472 55.8878 42.4397 56.2806 42.435L56.2461 42.4359C55.3289 42.4703 54.6133 43.2418 54.6477 44.159C54.7408 46.642 54.7755 49.1249 54.9166 51.608C55.149 56.4239 55.3789 59.0073 55.3929 59.2076Z" fill="white"/>
<path d="M58.5054 62.8258C57.7946 63.1137 57.0838 63.4937 56.373 64.2554C57.0838 65.0171 57.7946 65.3971 58.5054 65.6851C59.9085 66.2109 61.3931 66.1969 62.77 65.6801C63.4808 65.3901 64.1915 65.0128 64.9022 64.2554C64.1915 63.498 63.4808 63.1207 62.77 62.8308C61.3948 62.3146 59.9103 62.2993 58.5054 62.8258Z" fill="white"/>
</svg>
