<svg width="100" height="51" viewBox="0 0 100 51" fill="none" xmlns="http://www.w3.org/2000/svg">
<path d="M2.58594 29.5166H5.41886V43.4073H2.58594V29.5166Z" fill="black"/>
<path d="M7.06273 38.648C7.06086 37.6503 7.35501 36.6744 7.90796 35.8439C8.46091 35.0134 9.2478 34.3656 10.1691 33.9825C11.0903 33.5994 12.1045 33.4982 13.0833 33.6917C14.0621 33.8852 14.9615 34.3647 15.6676 35.0696C16.3738 35.7744 16.855 36.6729 17.0503 37.6513C17.2457 38.6297 17.1464 39.6441 16.765 40.5661C16.3836 41.488 15.7373 42.2761 14.9078 42.8306C14.0784 43.3852 13.1031 43.6811 12.1054 43.6811C11.4418 43.6887 10.7835 43.5638 10.1689 43.3136C9.55428 43.0635 8.99579 42.6932 8.52615 42.2244C8.05651 41.7557 7.68516 41.1979 7.43387 40.5837C7.18258 39.9696 7.0564 39.3115 7.06273 38.648ZM14.2961 38.648C14.285 38.2173 14.1471 37.7994 13.8997 37.4467C13.6523 37.0939 13.3064 36.822 12.9052 36.6648C12.504 36.5076 12.0654 36.4723 11.6443 36.5631C11.2231 36.6539 10.8381 36.8669 10.5373 37.1754C10.2366 37.4839 10.0335 37.8743 9.9534 38.2977C9.87335 38.721 9.91993 39.1586 10.0873 39.5556C10.2547 39.9526 10.5354 40.2915 10.8943 40.5298C11.2533 40.7681 11.6745 40.8953 12.1054 40.8954C12.4001 40.9037 12.6934 40.8508 12.9667 40.74C13.24 40.6292 13.4874 40.463 13.6933 40.2518C13.8991 40.0406 14.059 39.7891 14.1627 39.5131C14.2665 39.237 14.3119 38.9425 14.2961 38.648Z" fill="black"/>
<path d="M28.5335 33.8885V42.9349C28.5335 46.1361 26.0311 47.4865 23.5004 47.4865C22.6105 47.5527 21.7195 47.3727 20.925 46.9663C20.1305 46.5599 19.4632 45.9427 18.9961 45.1824L21.4324 43.7754C21.6257 44.165 21.9316 44.4877 22.3104 44.7015C22.6892 44.9153 23.1235 45.0105 23.5571 44.9746C23.8423 45.0222 24.1347 45.0036 24.4117 44.9202C24.6887 44.8369 24.9428 44.6911 25.1545 44.494C25.3661 44.2969 25.5297 44.0538 25.6326 43.7835C25.7355 43.5132 25.7749 43.2229 25.7478 42.9349V42.0567C25.4148 42.4665 24.9898 42.792 24.5075 43.0069C24.0252 43.2218 23.499 43.3201 22.9716 43.2938C21.6893 43.2938 20.4596 42.7844 19.5528 41.8777C18.6461 40.971 18.1367 39.7412 18.1367 38.4589C18.1367 37.1766 18.6461 35.9469 19.5528 35.0402C20.4596 34.1335 21.6893 33.6241 22.9716 33.6241C23.4987 33.6 24.0241 33.6993 24.5061 33.914C24.9881 34.1288 25.4133 34.4531 25.7478 34.8611V33.9168L28.5335 33.8885ZM25.7478 38.4589C25.7667 37.9997 25.6477 37.5453 25.4063 37.1541C25.1648 36.763 24.8119 36.453 24.3929 36.2641C23.9739 36.0751 23.5079 36.0158 23.0549 36.0938C22.6019 36.1717 22.1826 36.3834 21.8509 36.7015C21.5191 37.0197 21.2901 37.4298 21.1933 37.8791C21.0964 38.3284 21.1362 38.7965 21.3075 39.223C21.4788 39.6496 21.7737 40.0151 22.1544 40.2727C22.5351 40.5304 22.9841 40.6682 23.4437 40.6686C23.7438 40.6898 24.0449 40.648 24.3277 40.5457C24.6106 40.4434 24.8689 40.2831 25.086 40.0749C25.303 39.8667 25.4741 39.6153 25.5881 39.337C25.7021 39.0587 25.7565 38.7596 25.7478 38.4589Z" fill="black"/>
<path d="M30.1682 38.648C30.1663 37.6503 30.4605 36.6744 31.0134 35.8439C31.5664 35.0134 32.3533 34.3656 33.2745 33.9825C34.1957 33.5994 35.2099 33.4982 36.1887 33.6917C37.1675 33.8852 38.0669 34.3647 38.7731 35.0696C39.4792 35.7744 39.9604 36.6729 40.1558 37.6513C40.3511 38.6297 40.2518 39.6441 39.8704 40.5661C39.489 41.488 38.8427 42.2761 38.0133 42.8306C37.1838 43.3852 36.2085 43.6811 35.2108 43.6811C34.5473 43.6887 33.8889 43.5638 33.2743 43.3136C32.6597 43.0635 32.1012 42.6932 31.6316 42.2244C31.162 41.7557 30.7906 41.1979 30.5393 40.5837C30.288 39.9696 30.1618 39.3115 30.1682 38.648ZM37.4016 38.648C37.3904 38.2173 37.2525 37.7994 37.0051 37.4467C36.7577 37.0939 36.4118 36.822 36.0106 36.6648C35.6095 36.5076 35.1709 36.4723 34.7497 36.5631C34.3285 36.6539 33.9435 36.8669 33.6427 37.1754C33.342 37.4839 33.1389 37.8743 33.0588 38.2977C32.9788 38.721 33.0254 39.1586 33.1927 39.5556C33.3601 39.9526 33.6408 40.2915 33.9997 40.5298C34.3587 40.7681 34.7799 40.8953 35.2108 40.8954C35.504 40.901 35.7952 40.8462 36.0663 40.7342C36.3373 40.6222 36.5824 40.4556 36.7862 40.2447C36.99 40.0339 37.1481 39.7832 37.2508 39.5085C37.3534 39.2338 37.3983 38.9408 37.3827 38.648H37.4016Z" fill="black"/>
<path d="M41.5664 31.339C41.5664 30.9991 41.6672 30.6668 41.856 30.3842C42.0449 30.1016 42.3133 29.8813 42.6273 29.7512C42.9414 29.6211 43.2869 29.5871 43.6203 29.6534C43.9537 29.7197 44.2599 29.8834 44.5003 30.1237C44.7407 30.3641 44.9043 30.6703 44.9706 31.0037C45.037 31.3371 45.0029 31.6827 44.8729 31.9967C44.7428 32.3107 44.5225 32.5792 44.2399 32.768C43.9572 32.9568 43.625 33.0576 43.285 33.0576C42.83 33.0552 42.3943 32.8733 42.0725 32.5515C41.7507 32.2298 41.5689 31.7941 41.5664 31.339ZM41.8591 33.8886H44.692V43.4072H41.8591V33.8886Z" fill="black"/>
<path d="M57.0438 38.648C57.0781 39.2772 56.9877 39.907 56.7777 40.5011C56.5676 41.0952 56.2422 41.6419 55.82 42.1097C55.3978 42.5775 54.8873 42.9572 54.3178 43.2269C53.7483 43.4966 53.1311 43.651 52.5017 43.6812C51.9733 43.7065 51.4457 43.6157 50.9563 43.415C50.4668 43.2143 50.0273 42.9087 49.6688 42.5197V47.2412H46.8359V33.8887H49.6688V34.7858C50.0273 34.3968 50.4668 34.0912 50.9563 33.8905C51.4457 33.6898 51.9733 33.599 52.5017 33.6243C53.1303 33.6545 53.7467 33.8086 54.3155 34.0777C54.8844 34.3469 55.3945 34.7257 55.8165 35.1925C56.2386 35.6593 56.5642 36.2048 56.7748 36.7978C56.9855 37.3908 57.0769 38.0196 57.0438 38.648ZM54.2109 38.648C54.1997 38.2048 54.0587 37.7746 53.8054 37.4107C53.5521 37.0469 53.1977 36.7652 52.786 36.6008C52.3743 36.4363 51.9233 36.3962 51.4891 36.4855C51.0548 36.5747 50.6562 36.7894 50.3427 37.1029C50.0292 37.4164 49.8146 37.8149 49.7253 38.2492C49.6361 38.6835 49.6762 39.1344 49.8406 39.5461C50.0051 39.9578 50.2867 40.3123 50.6506 40.5655C51.0145 40.8188 51.4447 40.9598 51.8879 40.971C52.1972 40.9907 52.5071 40.9439 52.7969 40.8339C53.0866 40.7238 53.3494 40.553 53.5677 40.333C53.7859 40.1129 53.9546 39.8487 54.0623 39.5581C54.1699 39.2675 54.2142 38.9572 54.192 38.648H54.2109Z" fill="black"/>
<path d="M65.8635 40.5553C65.8635 42.7461 63.9749 43.6809 61.8974 43.6809C61.0675 43.7544 60.2346 43.5778 59.5059 43.1739C58.7773 42.77 58.1861 42.1573 57.8086 41.4146L60.2827 40.0076C60.3831 40.3511 60.5981 40.6499 60.8918 40.8543C61.1856 41.0587 61.5404 41.1565 61.8974 41.1313C62.5868 41.1313 62.9267 40.9141 62.9267 40.5364C62.9267 39.4882 58.2052 40.0454 58.2052 36.7592C58.2052 34.6817 59.9616 33.6335 61.9824 33.6335C62.7281 33.6109 63.4663 33.788 64.1205 34.1467C64.7747 34.5053 65.321 35.0324 65.703 35.6732L63.2195 36.9764C63.1098 36.727 62.93 36.5148 62.702 36.3656C62.474 36.2164 62.2077 36.1366 61.9352 36.1359C61.4442 36.1359 61.142 36.3248 61.142 36.6742C61.1798 37.7601 65.8635 37.033 65.8635 40.5553Z" fill="black"/>
<path d="M76.2884 33.8887V43.4073H73.4554V42.5197C73.1259 42.9141 72.7077 43.2249 72.235 43.4268C71.7624 43.6287 71.2486 43.7158 70.7358 43.6812C68.8472 43.6812 67.1758 42.3119 67.1758 39.734V33.8887H70.0087V39.3185C69.9838 39.5499 70.0108 39.7839 70.0876 40.0036C70.1644 40.2233 70.2891 40.4231 70.4528 40.5886C70.6164 40.7541 70.8149 40.881 71.0337 40.9602C71.2525 41.0395 71.4863 41.0689 71.7179 41.0466C72.7567 41.0466 73.4838 40.4422 73.4838 39.0919V33.8887H76.2884Z" fill="black"/>
<path d="M92.661 37.5714V43.4072H89.828V37.817C89.828 36.8727 89.3653 36.2494 88.4588 36.2494C87.5523 36.2494 86.9668 36.9199 86.9668 38.0436V43.4072H84.1339V37.817C84.1339 36.8727 83.6806 36.2494 82.7646 36.2494C81.8487 36.2494 81.2821 36.9199 81.2821 38.0436V43.4072H78.4492V33.8887H81.2821V34.7669C81.5782 34.379 81.9665 34.0713 82.4118 33.8718C82.8571 33.6722 83.3452 33.5871 83.8317 33.6243C84.3203 33.6005 84.8068 33.7038 85.2436 33.9238C85.6805 34.1439 86.0529 34.4734 86.3247 34.8802C86.6407 34.4549 87.0594 34.1166 87.5416 33.897C88.0238 33.6774 88.5538 33.5835 89.082 33.6243C91.2351 33.6243 92.661 35.1918 92.661 37.5714Z" fill="black"/>
<path d="M95.0801 33.8321C96.2483 33.8321 97.1953 32.885 97.1953 31.7168C97.1953 30.5486 96.2483 29.6016 95.0801 29.6016C93.9119 29.6016 92.9648 30.5486 92.9648 31.7168C92.9648 32.885 93.9119 33.8321 95.0801 33.8321Z" fill="black"/>
<path d="M34.6441 22.3115C40.1149 22.3115 44.5498 17.8765 44.5498 12.4057C44.5498 6.93496 40.1149 2.5 34.6441 2.5C29.1733 2.5 24.7383 6.93496 24.7383 12.4057C24.7383 17.8765 29.1733 22.3115 34.6441 22.3115Z" fill="black"/>
<path d="M56.7886 22.3115C62.2594 22.3115 66.6943 17.8765 66.6943 12.4057C66.6943 6.93496 62.2594 2.5 56.7886 2.5C51.3178 2.5 46.8828 6.93496 46.8828 12.4057C46.8828 17.8765 51.3178 22.3115 56.7886 22.3115Z" fill="black"/>
<path d="M22.4075 2.5H2.60547V22.302H22.4075V2.5Z" fill="black"/>
</svg>
