<svg width="104" height="74" viewBox="0 0 104 74" fill="none" xmlns="http://www.w3.org/2000/svg">
<path d="M8.47167 67.076V52H6V67.076H8.47167Z" fill="black"/>
<path d="M9.98438 62.0507C9.98438 65.1307 12.0509 67.3191 15.1911 67.3191C18.3313 67.3191 20.3978 65.1307 20.3978 62.0507C20.3978 58.9706 18.3313 56.7822 15.1911 56.7822C12.0509 56.7822 9.98438 58.9706 9.98438 62.0507ZM12.4763 62.0507C12.4763 60.2472 13.5501 58.9909 15.1911 58.9909C16.8321 58.9909 17.9059 60.2472 17.9059 62.0507C17.9059 63.8338 16.8321 65.1104 15.1911 65.1104C13.5501 65.1104 12.4763 63.8338 12.4763 62.0507Z" fill="black"/>
<path d="M21.2305 61.8481C21.2305 64.7661 23.1146 66.8735 25.9307 66.8735C27.3894 66.8735 28.6455 66.2858 29.2735 65.3132V67.0153C29.2735 68.6566 28.2403 69.7509 26.5182 69.7509C24.9785 69.7509 23.925 69.0011 23.7832 67.684H21.2913C21.6154 70.298 23.6211 72.0001 26.3764 72.0001C29.618 72.0001 31.6844 69.8724 31.6844 66.5695V57.066H29.4964L29.3546 58.4236C28.7468 57.3699 27.4907 56.7417 26.0117 56.7417C23.1551 56.7417 21.2305 58.9099 21.2305 61.8481ZM23.7427 61.7873C23.7427 60.1257 24.7962 58.9099 26.3562 58.9099C28.058 58.9099 29.1925 60.146 29.1925 61.7873C29.1925 63.4489 28.058 64.7255 26.3562 64.7255C24.8164 64.7255 23.7427 63.4692 23.7427 61.7873Z" fill="black"/>
<path d="M32.9062 62.0507C32.9062 65.1307 34.9727 67.3191 38.1129 67.3191C41.2531 67.3191 43.3196 65.1307 43.3196 62.0507C43.3196 58.9706 41.2531 56.7822 38.1129 56.7822C34.9727 56.7822 32.9062 58.9706 32.9062 62.0507ZM35.3982 62.0507C35.3982 60.2472 36.4719 58.9909 38.1129 58.9909C39.7539 58.9909 40.8278 60.2472 40.8278 62.0507C40.8278 63.8338 39.7539 65.1104 38.1129 65.1104C36.4719 65.1104 35.3982 63.8338 35.3982 62.0507Z" fill="black"/>
<path d="M45.9939 55.0193C46.8043 55.0193 47.4729 54.3708 47.4729 53.54C47.4729 52.7295 46.8043 52.0811 45.9939 52.0811C45.1633 52.0811 44.5352 52.7295 44.5352 53.54C44.5352 54.3708 45.1633 55.0193 45.9939 55.0193ZM44.7581 67.076H47.2298V57.0659H44.7581V67.076Z" fill="black"/>
<path d="M49.3945 71.7164H51.8053V65.6982C52.4334 66.7316 53.7908 67.3395 55.29 67.3395C58.2479 67.3395 60.0105 65.07 59.9699 61.9494C59.9092 58.8086 58.1061 56.762 55.2697 56.762C53.7503 56.762 52.3726 57.4307 51.7648 58.5857L51.623 57.066H49.3945V71.7164ZM51.9066 62.071C51.9066 60.2676 53.0007 59.0112 54.7227 59.0112C56.4448 59.0112 57.478 60.2878 57.478 62.071C57.478 63.8542 56.4448 65.1105 54.7227 65.1105C53.0007 65.1105 51.9066 63.8745 51.9066 62.071Z" fill="black"/>
<path d="M60.5977 64.0771C60.6788 66.0629 62.2185 67.3395 64.6091 67.3395C66.9592 67.3395 68.5597 66.0832 68.5597 64.1379C68.5597 62.6992 67.6683 61.7265 66.0273 61.3213L64.2647 60.8957C63.5151 60.6931 63.0086 60.4297 63.0086 59.7813C63.0086 59.0923 63.5556 58.606 64.447 58.606C65.379 58.606 65.9868 59.1328 65.9868 60.0042H68.2356C68.1545 58.0183 66.6756 56.762 64.5078 56.762C62.3603 56.762 60.7598 58.0183 60.7598 59.9231C60.7598 61.22 61.5094 62.2939 63.4341 62.8005L65.1764 63.2463C65.8247 63.4287 66.2299 63.7326 66.2299 64.3C66.2299 65.0903 65.4803 65.455 64.5686 65.455C63.4746 65.455 62.8465 64.9484 62.8465 64.0771H60.5977Z" fill="black"/>
<path d="M73.6865 67.3394C75.0439 67.3394 76.3405 66.7112 76.928 65.7791L77.0901 67.076H79.3997V57.0659H76.928V62.3141C76.928 64.1175 76.2392 65.1307 74.6185 65.1307C73.3624 65.1307 72.4912 64.5228 72.4912 62.4559V57.0659H70.0195V63.3273C70.0195 65.7183 71.3161 67.3394 73.6865 67.3394Z" fill="black"/>
<path d="M84.0536 67.0761V61.3213C84.0536 59.7002 85.0058 58.9302 86.1809 58.9302C87.3559 58.9302 88.1258 59.6799 88.1258 61.0984V67.0761H90.5367V61.3415C90.5367 59.7002 91.4686 58.9302 92.6437 58.9302C93.839 58.9302 94.6089 59.6799 94.6089 61.0984V67.0761H96.9995V60.531C96.9995 58.221 95.7231 56.762 93.292 56.762C91.7725 56.762 90.5772 57.4915 90.091 58.6668C89.544 57.4915 88.45 56.762 86.7887 56.762C85.6136 56.762 84.5601 57.3091 83.9726 58.2007L83.851 57.066H81.582V67.0761H84.0536Z" fill="black"/>
<path d="M45.487 38.3523C42.2308 44.2121 35.6009 47 28.8971 47H2C30 43.5 49.5 29.5 52 10C54.5 29.5 74 43.5 102 47H75.1029C68.3991 47 61.7692 44.2121 58.513 38.3523C54.9886 32.01 52.7432 24.8334 52 17C51.2568 24.8334 49.0114 32.01 45.487 38.3523Z" fill="black"/>
<path d="M30.1051 36.2813C28.5344 37.1656 26.8822 37.9962 25.1522 38.7699C24.1695 35.3753 23.8079 31.8138 24.0963 28.266C24.4778 23.5725 25.9851 19.0476 28.4847 15.0923C30.9844 11.137 34.3991 7.87319 38.4265 5.59008C42.4539 3.30698 46.9697 2.07501 51.5738 2.00332C56.1779 1.93162 60.7282 3.02241 64.8217 5.17906C68.9152 7.3357 72.4255 10.4916 75.0416 14.3673C77.6578 18.243 79.2991 22.7188 79.8202 27.3982C80.2463 31.2257 79.9123 35.0929 78.8478 38.7699C77.1178 37.9962 75.4656 37.1655 73.8949 36.2812C74.5571 33.593 74.7427 30.7964 74.4342 28.0256C74.014 24.2521 72.6904 20.6428 70.5808 17.5175C68.4711 14.3922 65.6404 11.8472 62.3394 10.1081C59.0384 8.36897 55.369 7.48937 51.6563 7.54718C47.9435 7.60499 44.302 8.59845 41.0544 10.4395C37.8067 12.2806 35.053 14.9125 33.0373 18.1021C31.0216 21.2917 29.8061 24.9405 29.4985 28.7254C29.2917 31.2694 29.4993 33.8222 30.1051 36.2813Z" fill="black"/>
</svg>
