<svg width="169" height="40" viewBox="0 0 169 40" fill="none" xmlns="http://www.w3.org/2000/svg">
<g clip-path="url(#clip0_63_47)">
<path fill-rule="evenodd" clip-rule="evenodd" d="M10.0148 2.5V40H0V2.5H10.0148Z" fill="black"/>
<path fill-rule="evenodd" clip-rule="evenodd" d="M15.0234 2.5H36.3049C43.2187 2.5 48.8234 8.09644 48.8234 15C48.8234 21.9036 43.2187 27.5 36.3049 27.5H25.0382V40H15.0234V2.5ZM25.0382 17.5H36.3049C37.6877 17.5 38.8086 16.3807 38.8086 15C38.8086 13.6193 37.6877 12.5 36.3049 12.5H25.0382V17.5Z" fill="black"/>
<path fill-rule="evenodd" clip-rule="evenodd" d="M86.3781 2.5V21.875C86.3781 26.3623 90.0211 30 94.5151 30C99.0091 30 102.652 26.3623 102.652 21.875V2.5H112.667V21.875C112.667 31.8852 104.54 40 94.5151 40C84.4901 40 76.3633 31.8852 76.3633 21.875V2.5H86.3781Z" fill="black"/>
<path fill-rule="evenodd" clip-rule="evenodd" d="M52.5773 20C52.5773 10.335 60.4239 2.5 70.1032 2.5H72.6069V12.5H70.1032C65.9549 12.5 62.5921 15.8579 62.5921 20V21.25C62.5921 31.6053 54.185 40 43.8143 40H42.5625V30H43.8143C48.654 30 52.5773 26.0825 52.5773 21.25V20Z" fill="black"/>
<path d="M168.999 3.75C168.999 5.82107 167.318 7.5 165.243 7.5C163.169 7.5 161.488 5.82107 161.488 3.75C161.488 1.67893 163.169 0 165.243 0C167.318 0 168.999 1.67893 168.999 3.75Z" fill="black"/>
<path d="M123.421 39.9999L128.2 20.018L131.753 32.0392C133.871 39.209 144.042 39.209 146.161 32.0392L149.713 20.018L154.492 39.9999H164.788L157.274 8.57937C155.487 1.10732 144.942 0.830666 142.764 8.19879L138.957 21.0832L135.149 8.1988C132.972 0.830709 122.426 1.10728 120.639 8.57936L113.125 39.9999H123.421Z" fill="black"/>
</g>
<defs>
<clipPath id="clip0_63_47">
<rect width="169" height="40" fill="white"/>
</clipPath>
</defs>
</svg>
