<svg width="100" height="100" viewBox="0 0 100 100" fill="none" xmlns="http://www.w3.org/2000/svg">
<path d="M78.9095 55.5977C81.9622 52.8186 85.1924 49.8251 87.945 46.7236C90.1516 44.2372 91.1956 42.3964 89.207 38.3754C89.1751 38.2206 89.1653 38.0644 89.1111 37.9122C88.6774 36.6966 87.6104 35.8471 86.3236 35.6956L81.5271 35.1358C85.8571 31.4077 85.786 31.8472 85.7986 29.2338C86.0305 28.507 85.8522 27.7887 85.403 27.2727C81.5518 22.8505 81.6283 22.6021 80.6624 22.5443C80.2316 22.5106 79.7749 22.6721 79.4446 22.9687C76.1521 25.9298 67.9073 32.6959 67.0183 33.4393L63.7181 33.0499C60.345 25.3833 55.2268 12.0461 50.13 9.03498C48.9564 8.3416 46.5818 7.0797 45.1847 7.51044C45.0135 7.49213 44.8486 7.45246 44.6703 7.46215C43.3778 7.49806 42.2404 8.2513 41.7019 9.42605L30.9137 32.86C30.7543 33.2089 30.4283 33.4631 30.0621 33.5349L4.62984 37.9388C1.88094 38.4285 0.873487 41.8587 2.92804 43.7501L21.8834 61.2284C22.1692 61.4984 22.3042 61.8818 22.2568 62.2653L18.5918 87.8024C18.209 90.4849 20.7225 92.0509 23.4686 92.1749C30.6792 93.1584 45.4954 92.606 45.4954 91.3705C45.4954 90.6469 39.9807 90.0601 33.178 90.0601C31.9501 90.0601 30.7665 90.0798 29.6474 90.1154C30.8187 89.4823 42.9674 82.3659 48.1498 79.0508C71.3014 90.2403 70.3011 90.371 72.0012 90.2752C73.9619 90.7548 76.318 89.3292 77.152 87.3416C78.1478 84.9684 77.6341 82.2636 77.1005 79.7457C74.0191 64.7788 73.6495 64.9478 73.5224 61.3844C75.2687 59.3626 77.06 57.2815 78.9095 55.5977ZM80.5102 24.9764C82.111 26.8173 83.01 27.9156 83.6668 28.5681C70.4329 39.5645 61.4284 47.6391 50.8184 58.0359C44.7434 52.2081 40.9526 49.2434 35.1374 42.6744C36.7909 41.1114 38.1299 39.7842 39.6611 38.3373C49.8562 49.1565 49.846 50.2423 50.9318 50.2658C51.5063 50.2708 51.5034 50.2815 54.9415 46.8643C59.6532 42.1866 76.3527 28.7026 80.5102 24.9764ZM48.1414 76.5891C47.1476 76.1023 45.9786 76.1411 45.0107 76.681L22.5096 89.3074C21.6585 89.7863 20.6367 89.0877 20.7747 88.1154L24.4426 62.5597C24.5804 61.4682 24.1898 60.371 23.3885 59.6142L4.42304 42.128C3.70858 41.469 4.06267 40.2809 5.01185 40.1109L30.4614 35.7035C31.5485 35.4917 32.4691 34.77 32.92 33.7776L43.7067 10.3466C44.0735 9.54764 45.2921 9.33044 45.802 10.292L57.8496 33.0976C58.3724 34.0749 59.336 34.742 60.4375 34.8835L64.7022 35.3865C54.5838 43.9527 55.0593 43.6463 52.4064 46.272C44.5003 37.8619 44.2449 36.4129 41.9347 36.0535C41.2165 35.9419 39.9537 35.7564 39.2265 36.0348C39.195 36.0468 39.1834 36.0655 39.1818 36.0878C38.3361 36.3123 38.4552 36.5173 33.4528 41.2311C32.6917 41.9499 32.6342 43.1713 33.325 43.9547C39.5779 51.0429 43.4896 54.0017 50.0572 60.3667C50.0757 60.3847 50.1002 60.3908 50.1196 60.4072C50.2475 60.5482 50.3668 60.6862 50.6057 60.7736C51.5447 61.1171 52.7454 60.9041 53.487 60.2233C61.9356 52.4675 70.56 44.6461 79.2599 37.0921L86.068 37.8864C87.0384 38.0019 87.4428 39.1685 86.7745 39.8596L68.79 58.3791C68.0159 59.202 67.6885 60.3337 67.914 61.395L72.9619 86.6836C73.1543 87.6331 72.1804 88.3932 71.3061 87.9747L48.1414 76.5891Z" fill="white"/>
<path d="M80.6498 8.18659C80.2463 10.0184 80.0165 11.8961 79.9691 13.7688C79.9533 14.3777 80.4344 14.8839 81.0433 14.8997H81.0721C81.6681 14.8997 82.1592 14.4244 82.175 13.8248C82.2181 12.0928 82.4306 10.3558 82.804 8.66194C82.9347 8.06667 82.5599 7.47858 81.9639 7.34717C81.3794 7.21362 80.7805 7.59132 80.6498 8.18659Z" fill="white"/>
<path d="M90.7616 10.2647C90.3307 9.83747 89.6299 9.84322 89.2019 10.2755C87.6122 11.8883 86.1545 13.6532 84.8677 15.5216C84.359 16.2625 84.9048 17.25 85.7754 17.25C86.9351 17.25 86.7441 15.91 90.7731 11.8251C91.201 11.3914 91.1953 10.6927 90.7616 10.2647Z" fill="white"/>
<path d="M97.0618 18.6272C96.9137 18.6272 89.795 18.8849 89.943 18.89C89.334 18.913 88.8587 19.4242 88.8817 20.0332C88.9032 20.6277 89.3915 21.0952 89.9817 21.0952C90.1298 21.0952 97.2486 20.8375 97.1006 20.8324C97.7095 20.8094 98.1849 20.2981 98.1619 19.6892C98.1403 19.0947 97.6521 18.6272 97.0618 18.6272Z" fill="white"/>
</svg>
