<svg width="100" height="100" viewBox="0 0 100 100" fill="none" xmlns="http://www.w3.org/2000/svg">
<path fill-rule="evenodd" clip-rule="evenodd" d="M90.0057 61.6233C90.2319 50.0487 72.0139 55.2467 66.144 50.0585C59.5816 42.6203 53.1245 44.5317 44.2781 44.5033C38.3241 44.0847 36.6023 47.2763 33.3563 51.3767C26.2883 56.3323 22.7697 52.7007 23.0295 64.1365C22.8619 65.1645 27.3255 64.7421 28.2087 65.0407C29.1681 65.1359 31.5631 65.3169 32.4131 65.6453C32.8283 55.6627 47.1987 55.1807 47.9463 65.3019C50.6141 64.2879 53.7745 64.8373 56.5731 64.4569C59.0657 64.3887 61.8031 63.9015 64.1349 64.8309C65.5231 55.1289 79.5588 55.8849 79.6368 65.7985C82.1236 65.5699 86.5356 65.3033 89.1016 65.1029C89.601 65.0659 89.9877 64.7185 89.9943 64.2601L90.0057 61.6233ZM52.2741 67.0965L51.9629 67.0915C51.9747 67.3501 51.9872 67.6105 51.997 67.8739C52.08 67.2347 52.0139 67.4817 52.1941 67.9589C52.2605 67.7599 52.2351 67.3639 52.2741 67.0965ZM31.0843 49.5267C31.0883 49.5199 31.0951 49.5131 31.1019 49.5083L31.0647 49.5551L31.0843 49.5267ZM51.5941 69.2171C50.7379 75.1853 54.5191 89.1411 45.4031 89.1497C45.0773 89.2865 18.1001 88.9567 16.9501 89.0435C9.16545 89.0377 10.8011 81.3597 10.7365 76.0843C11.4533 56.1453 9.75545 34.4799 11.3415 14.6863C13.1089 10.4607 18.8353 11.6501 22.4351 11.4975C22.3263 12.6873 22.6717 16.8145 24.2659 16.8577C26.5605 17.0279 29.1925 16.7283 31.4893 16.6821C33.3517 16.5281 35.3579 16.5919 37.2299 16.4559C38.4235 16.4113 38.2659 15.2049 38.3965 15.0727C38.8293 13.5127 38.9849 13.1545 38.8979 11.4889C41.3409 11.7165 46.4761 10.7389 48.5549 12.3677C51.4691 14.2789 51.3051 17.0177 51.3631 20.0943C51.4367 27.2199 51.4387 34.5609 51.9631 41.6205C40.6335 41.6873 37.8433 40.0047 31.0663 49.5287C30.2421 50.1335 27.2865 51.2855 26.3547 51.6803C20.4959 53.2591 20.1767 59.2303 20.7225 64.3067C21.0867 67.6949 24.9355 66.6425 27.4795 66.6729C29.0311 66.7063 30.9353 66.5073 32.4181 66.2701C32.3899 69.8577 36.7145 73.9333 40.2491 72.5071C39.0301 71.3825 36.4965 69.9833 35.7485 68.0277C34.2937 65.0447 36.4479 61.0727 39.7633 60.6895C43.5051 60.1905 46.2795 63.8591 45.4851 67.1997C44.8637 69.3635 43.0601 71.4485 40.8597 72.1559C40.1849 72.3643 40.6273 72.3543 40.6743 72.4241C40.5977 72.5941 40.5309 72.5671 40.6715 72.6211C40.5637 72.6489 40.3217 72.6969 40.2491 72.7693C40.7611 73.2489 41.9791 72.7559 42.2235 72.8521C42.4019 72.9721 43.0169 72.5347 43.3823 72.4307C45.8509 71.5971 47.5615 69.2469 47.8987 66.6883C48.3395 66.7843 48.9809 66.8611 49.3511 66.9859L51.7272 67.0825L51.5941 69.2171ZM24.2999 11.4957C24.6753 12.4511 25.1663 13.0795 25.5377 13.9811C29.1143 13.9293 32.7893 13.8387 36.3545 14.1049L36.7583 12.9401C36.7769 12.7283 36.9115 12.7643 36.9475 12.6825L37.4899 11.4875C33.9905 11.4771 27.7279 11.4883 24.2999 11.4957ZM92.0472 62.1179C91.9482 66.6157 90.9042 67.0487 86.6178 66.7005C84.3454 66.7115 81.8764 66.6687 79.5956 66.5493C79.2994 69.1643 77.561 71.5911 75.0568 72.4313C74.6904 72.5355 74.0766 72.9723 73.897 72.8527C73.642 72.7701 72.4503 73.2297 71.9217 72.7697C71.9953 72.6973 72.2354 72.6503 72.343 72.6215C72.2162 72.5581 72.2554 72.6175 72.3488 72.4245C72.3012 72.3537 71.861 72.3649 72.5332 72.1563C74.7098 71.4497 76.4922 69.4259 77.1384 67.2751C78.0074 63.8063 75.1032 60.1851 71.4376 60.6899C68.1664 61.0707 66.0902 64.8449 67.33 67.8409C68.0676 69.8991 70.6192 71.3329 71.9214 72.5075C68.5518 73.8861 64.3866 70.1465 64.1256 66.7533C60.3746 67.5223 56.0922 67.3345 52.3246 67.1005C54.9176 94.8611 51.6709 91.2667 26.0775 91.3775C14.6257 91.5643 7.10885 92.9245 8.17685 78.1989C10.9117 3.64669 -7.03135 7.68049 46.1299 8.71369C54.5927 9.97429 53.9117 17.4383 53.5587 24.0633C53.2561 28.6489 53.2118 37.4129 52.3746 41.6187C59.7316 41.2381 62.9008 43.0013 67.9818 48.2043C75.6132 52.4585 93.1154 48.6979 92.0472 62.1179ZM61.7243 34.0413C61.8591 34.2299 62.0371 34.1363 62.0823 34.1487C62.4177 34.2403 62.1752 34.3297 62.3154 34.3067C62.7826 34.2303 62.4893 34.2845 63.2149 34.5193C63.2165 34.5197 63.5095 34.5797 63.5281 34.6501C67.4993 35.8511 70.0578 39.5217 71.274 43.2897C71.558 43.4555 71.4016 43.5605 71.5706 43.6173C71.6978 43.6601 71.6246 43.7211 71.6808 43.7333C71.7754 43.7567 71.796 43.7957 71.8388 43.8347C73.1954 43.3517 73.4387 41.6867 72.9831 40.2957C72.3625 37.2103 69.7837 35.0299 67.1539 33.5729C65.5455 32.8749 63.721 32.1909 61.9946 33.2189C61.5104 33.4385 61.7648 33.4677 61.7664 33.5397C61.7686 33.6527 61.695 33.6269 61.7586 33.7377C61.5402 33.8431 61.5773 33.8587 61.7243 34.0413ZM61.8453 24.2371C72.7289 25.3381 79.2085 33.8107 81.6469 43.8349C86.8183 34.1479 71.5595 20.2781 61.7907 23.6469C61.8123 23.6957 61.9929 23.6683 61.8893 23.8235C61.8505 23.8815 61.8175 23.8617 61.9097 23.9327C61.8063 23.9601 61.6502 23.9859 61.6014 24.0537L61.8453 24.2371ZM38.4743 81.3177C37.0627 78.1037 29.9409 79.7321 27.2439 80.4289C26.3175 80.6499 26.7725 80.6831 26.8059 80.7557C26.7311 80.9489 26.6905 80.8717 26.7941 80.9527C26.7085 80.9757 26.5239 81.0095 26.4693 81.0805C26.7791 81.4891 27.7111 81.2695 27.9003 81.4403C27.9969 81.5947 28.4737 81.3721 28.7841 81.4521C30.3331 81.7331 33.6395 81.8193 35.2591 81.8335C36.3347 81.8753 36.6179 83.1543 35.8491 83.7269C34.9957 84.2605 32.4471 83.8667 31.3905 83.9787C30.3623 83.8821 25.8017 84.4925 25.4119 83.4547C24.4845 82.5017 25.7519 81.4083 26.4693 80.8181C23.5907 78.3749 20.9769 84.5065 24.4505 86.2717C26.1499 87.4583 30.1361 86.8023 32.0753 86.8691C33.4063 86.7265 35.2435 86.9505 36.5497 86.4983C38.5467 85.7605 39.5091 83.1793 38.4743 81.3177Z" fill="white"/>
</svg>
