<svg width="100" height="100" viewBox="0 0 100 100" fill="none" xmlns="http://www.w3.org/2000/svg">
<path d="M6.47078 32.0909C8.68954 32.5526 12.5858 33.7684 13.288 33.7684C14.5148 33.7684 14.7007 31.9858 13.496 31.735C10.7683 31.1671 9.69961 30.6638 6.88949 30.0789C6.33031 29.9592 5.78986 30.3197 5.67414 30.8755C5.55842 31.4307 5.91494 31.9752 6.47078 32.0909Z" fill="white"/>
<path d="M15.0357 27.1324C15.233 27.4328 15.5607 27.596 15.8952 27.596C16.7033 27.596 17.2046 26.6912 16.7533 26.0047C15.1253 23.5252 13.2003 21.2396 11.0324 19.2109C10.617 18.8229 9.96757 18.8437 9.58029 19.2584C9.19234 19.6731 9.21374 20.3232 9.62778 20.7105C11.6772 22.6289 13.4966 24.7893 15.0357 27.1324Z" fill="white"/>
<path d="M21.5054 12.6746C20.9321 12.6311 20.4519 13.0732 20.4191 13.6391C20.2164 17.047 20.288 20.4951 20.6311 23.887C20.6847 24.4167 21.1308 24.8114 21.6519 24.8114C22.2625 24.8114 22.7368 24.285 22.6752 23.681C22.3435 20.3968 22.2746 17.0598 22.4699 13.7608C22.504 13.1943 22.0719 12.708 21.5054 12.6746Z" fill="white"/>
<path d="M26.0828 85.8553C39.1545 86.4344 56.4041 86.906 69.4836 87.2699C72.2695 87.3475 75.1494 87.5621 77.5362 86.1232C77.8791 85.9165 78.3 85.4783 78.4606 85.1115C78.722 84.5143 78.4042 83.7887 77.8908 83.3869C77.3774 82.9851 76.0145 83.3265 75.3627 83.3411C74.9217 83.351 74.4604 83.3605 73.995 83.3701C75.1288 82.2327 75.64 80.7994 75.5797 79.3229C75.2751 71.9021 75.1017 65.9384 75.0303 60.4106C80.9199 52.143 87.6971 43.753 94.3159 35.1755C94.3432 34.4004 94.3898 34.0347 94.271 33.4671C94.3925 33.1107 94.312 32.7031 94.0354 32.4185C89.117 27.3653 89.3307 26.2806 88.2904 26.2374C87.9613 26.2159 87.689 26.3491 87.4844 26.5765C82.9781 31.58 79.0257 37.4234 75.1965 43.0287C75.2979 39.9077 75.4286 36.7893 75.6185 33.7214C75.8017 30.753 73.5389 28.1858 70.5744 27.9985C57.3026 27.1631 38.2582 26.3491 22.9028 27.2199C22.1856 27.2608 21.5045 27.442 20.8848 27.7345C19.0617 28.0943 17.4015 29.5247 16.5392 31.2382C14.9678 34.3603 15.3481 34.2789 14.7174 72.8716C14.5521 82.9971 17.5364 85.4768 26.0828 85.8553ZM77.3729 43.4897C80.7715 38.5119 84.2791 33.377 88.1954 28.8734C89.3753 30.365 90.6221 31.8071 91.917 33.1776C83.6598 42.9476 75.2949 53.2428 68.3551 64.1353C61.55 60.9446 56.9644 57.1718 50.6425 53.0493C51.8667 51.1872 52.2959 50.2604 53.0732 48.6776C54.9936 49.9658 57.0216 51.2728 58.9921 52.5437C66.5197 57.3917 66.3996 57.6734 67.1603 57.271C68.3833 56.6279 76.9514 44.1064 77.3729 43.4897ZM19.745 32.6626C19.7898 30.8325 21.1972 29.3751 23.0192 29.2721C35.0945 28.5858 51.4954 28.856 70.4447 30.0493C72.2801 30.165 73.6814 31.7556 73.5677 33.5943C73.3117 37.7326 73.1337 41.9604 73.0388 46.1642C70.9059 49.2251 68.8464 52.0856 66.4757 54.9843C62.2315 52.1204 57.414 49.1534 53.2512 46.3178C53.0057 46.1519 52.7034 46.097 52.4144 46.1733C51.3557 46.4454 51.7007 47.8846 48.359 52.7644C48.1196 53.1128 48.0824 53.6099 48.4608 54.0248C48.5152 54.684 48.5403 55.3724 48.6717 55.9545C55.1014 60.5267 61.235 64.1824 68.0055 68.0482C68.7624 68.4804 69.7184 68.2409 70.1906 67.5082C71.0984 66.0991 72.0467 64.6863 73.0205 63.2706C73.1096 68.0341 73.2727 73.2146 73.5262 79.4072C73.6048 81.3153 72.0966 82.9025 70.1872 82.9081C55.5421 82.9667 38.484 81.9917 23.2386 81.9917C22.0444 81.9917 20.8329 82.1545 19.6962 80.9937C19.0601 80.3449 18.7223 79.4834 18.7444 78.5711C19.1154 63.2773 19.3681 48.0702 19.745 32.6626Z" fill="white"/>
</svg>
